<?xml version="1.0" encoding="utf-8"?>
<!-- Generator: Adobe Illustrator 25.1.0, SVG Export Plug-In . SVG Version: 6.00 Build 0)  -->
<svg version="1.1" id="Layer_1" xmlns="http://www.w3.org/2000/svg" xmlns:xlink="http://www.w3.org/1999/xlink" x="0px" y="0px"
	 viewBox="0 0 189.2 53.3" style="enable-background:new 0 0 189.2 53.3;" xml:space="preserve">
<style type="text/css">
	.st0{fill:#FFFFFF;}
</style>
<circle class="st0" cx="23.6" cy="23.6" r="3.3"/>
<circle class="st0" cx="35.3" cy="5.4" r="3.3"/>
<path class="st0" d="M89.4,17.9h-9v19.3h4.1v-6.9h4.9c3.3,0.2,6.2-2.3,6.5-5.6c0-0.2,0-0.4,0-0.6C95.9,20.8,93.6,17.9,89.4,17.9z
	 M88.8,26.8h-4.3v-5.2h4.4c1.4-0.1,2.7,0.9,2.8,2.4s-0.9,2.7-2.4,2.8C89.2,26.8,89,26.8,88.8,26.8L88.8,26.8z"/>
<polygon class="st0" points="115.8,17.9 111.7,17.9 111.7,37.3 124,37.3 124,33.6 115.8,33.6 "/>
<path class="st0" d="M135.1,17.9l-7.5,19.3h4.7l1.2-3.3h8.3l1.2,3.3h4.7l-7.4-19.3H135.1z M134.7,30.4l3-8.3l3,8.3L134.7,30.4z"/>
<path class="st0" d="M164.9,27.3c2-0.5,3.5-2.3,3.3-4.4c0-2.6-1.9-4.9-5.6-4.9h-10.1v19.3H163c3.7,0,5.6-2.3,5.6-5.2
	C168.7,29.7,167.1,27.7,164.9,27.3z M156.6,21.5h5.2c1.1-0.1,2.2,0.7,2.3,1.9c0,0.1,0,0.2,0,0.2c0,1.1-0.9,2.1-2,2.1
	c-0.1,0-0.2,0-0.2,0h-5.2V21.5z M161.9,33.7h-5.3v-4.5h5.3c1.2-0.1,2.4,0.8,2.5,2c0,0.1,0,0.2,0,0.2c0,1.2-0.9,2.2-2.1,2.3
	C162.1,33.7,162,33.7,161.9,33.7L161.9,33.7z"/>
<path class="st0" d="M181.9,25c-2.1-0.5-3.9-0.9-3.9-2.1s1-2,2.8-2c2.1,0,4.1,0.8,5.7,2.2l2.3-3c-2.1-1.8-4.8-2.8-7.5-2.7
	c-4.6,0-7.3,2.7-7.3,5.9c0,4.4,4.1,5.3,7.2,6c2.1,0.5,3.9,0.9,3.9,2.3c0,1.1-1.1,2.2-3.4,2.2c-2.3,0-4.6-0.9-6.2-2.6l-2.2,3.1
	c2.2,2.1,5.2,3.2,8.2,3.1c5.2,0,7.7-2.7,7.7-6.2C189.2,26.7,185.1,25.7,181.9,25z"/>
<path class="st0" d="M76.2,17.9h-5.1l-4.8,6.4c-0.6,0.7-1.4,1.1-2.4,1.1h-0.7v-7.5H59v19.3h4.1v-7.6h0.7c0.9,0,1.8,0.4,2.4,1.2
	l4.8,6.4h5.1l-7.8-9.7L76.2,17.9z"/>
<path class="st0" d="M37.3,23.6h-3.9c0,5.4-4.4,9.8-9.8,9.8v3.9c5.4,0,9.8,4.4,9.8,9.8h3.9c0-5.4,4.4-9.8,9.8-9.8v-3.9
	C41.7,33.4,37.3,29,37.3,23.6z M35.3,40.1c-1.2-2-2.8-3.6-4.8-4.8c2-1.2,3.6-2.8,4.8-4.8c1.2,2,2.8,3.6,4.8,4.8
	C38.1,36.5,36.5,38.2,35.3,40.1z"/>
<path class="st0" d="M13.7,23.6c0-5.4,4.4-9.8,9.8-9.8V9.9C16,9.9,9.9,16,9.9,23.6L13.7,23.6z"/>
<path class="st0" d="M3.9,23.6c0-10.9,8.8-19.7,19.7-19.7V0C10.5,0,0,10.5,0,23.6s10.5,23.6,23.6,23.6v-3.9
	C12.7,43.2,3.9,34.4,3.9,23.6z"/>
</svg>
